# xmcd
#
# Track frame offsets:
#	182
#	22935
#	36972
#	61010
#	94740
#	129007
#	148747
#	162145
#	177315
#	202737
#	216947
#	238070
#
# Disc length: 3594 seconds
#
# Revision: 0
# Processed by: cddbd v1.5.2PL0 Copyright (c) Steve Scherf et al.
# Submitted via: audiograbber 1.83.01
#
DISCID=990e080c
DTITLE=MS® - Jugo De Hits 9.6
DYEAR=1995
DGENRE=Pop
TTITLE0=Joe Cocker - With A Little Help Of My Friends
TTITLE1=Troggs - I Can't Control Myself
TTITLE2=Bachman Turner Overdrive - Lookin' Out For # 1
TTITLE3=Eric Burdon - Sky Pilot
TTITLE4=Moody Blues - Nights In White Satin
TTITLE5=Mandrill - Mandrill
TTITLE6=Allman Brothers Band - Midnight Rider
TTITLE7=Buddy Miles - Them Changes
TTITLE8=Traffic - Dear Mr. Fantasy
TTITLE9=John Mayal - Ramblin On My Mind
TTITLE10=Elton John - Rocket Man
TTITLE11=Deep Purple - Knocking At Your Back Door
EXTD=MS®
EXTT0=MS®
EXTT1=
EXTT2=
EXTT3=
EXTT4=
EXTT5=
EXTT6=
EXTT7=
EXTT8=
EXTT9=
EXTT10=
EXTT11=
PLAYORDER=
